<svg width="567" height="422" viewBox="0 0 567 422" fill="none" xmlns="http://www.w3.org/2000/svg">
<path d="M484.028 418.832C490.044 404.716 494.287 389.353 492.279 374.148C491.59 368.993 490.092 363.978 487.84 359.292C486.026 355.471 483.683 351.925 480.881 348.759C479.912 347.643 478.582 346.902 477.124 346.668C475.666 346.433 474.172 346.718 472.902 347.474C472.706 347.588 472.509 347.709 472.328 347.837C471.346 348.531 470.571 349.479 470.086 350.582C469.993 350.792 469.915 351.01 469.852 351.232C469.575 352.16 469.501 353.138 469.634 354.097C470.692 361.922 470.462 369.868 468.954 377.619C468.569 379.592 468.099 381.548 467.543 383.486C466.294 381.924 464.966 380.428 463.565 379.002C459.931 375.314 455.741 372.222 451.148 369.839H451.14C451.117 369.824 451.102 369.816 451.08 369.801C445.509 366.958 438.081 368.138 433.741 370.073C433.454 370.194 433.182 370.33 432.918 370.459C430.654 371.623 429.529 372.961 430.495 373.838C430.714 374.027 430.933 374.224 431.137 374.421C437.717 380.514 443.107 387.78 447.034 395.848V395.855C448.594 399.067 449.909 402.394 450.966 405.805C452.423 410.516 453.631 415.74 456.477 419.581C456.768 419.985 457.083 420.371 457.42 420.738L482.843 420.533C482.904 420.503 482.956 420.481 483.017 420.45L484.028 420.488C483.991 420.307 483.945 420.125 483.9 419.944V419.929C483.877 419.83 483.847 419.724 483.824 419.634C483.802 419.558 483.787 419.49 483.772 419.43C483.817 419.316 483.862 419.21 483.915 419.097C483.953 419.006 483.991 418.923 484.028 418.832Z" fill="#F0F0F0"/>
<path d="M483.9 419.928C483.892 419.985 483.87 420.039 483.835 420.084C483.801 420.13 483.755 420.166 483.703 420.188C483.651 420.211 483.594 420.22 483.537 420.214C483.48 420.208 483.426 420.188 483.379 420.155C482.334 419.396 481.188 418.788 479.975 418.348C479.967 418.341 479.967 418.348 479.967 418.348C478.436 417.797 476.86 417.377 475.257 417.093C475.242 417.093 475.234 417.086 475.219 417.086C474.57 416.957 473.921 416.844 473.272 416.723C470.117 416.141 466.909 415.437 464.176 413.638C463.064 412.948 462.11 412.03 461.378 410.945C460.645 409.859 460.151 408.631 459.926 407.34C459.526 404.807 460.032 402.259 460.243 399.734C460.258 399.552 460.274 399.363 460.281 399.182C460.296 398.947 460.304 398.721 460.304 398.494C460.381 396.201 459.921 393.922 458.96 391.84C457.726 389.348 456.105 387.067 454.159 385.081C453.155 384 452.109 382.959 451.019 381.958H451.012C450.966 381.913 450.929 381.875 450.883 381.837C450.883 381.83 450.876 381.822 450.868 381.815C446.21 377.576 440.927 374.082 435.205 371.457C435.002 371.366 434.79 371.268 434.579 371.177C434.028 370.927 433.477 370.693 432.918 370.459C433.182 370.33 433.454 370.194 433.741 370.073C440.123 372.777 446.012 376.522 451.17 381.157C451.344 381.308 451.517 381.467 451.683 381.626C452.989 382.836 454.232 384.103 455.412 385.429C457.299 387.465 458.828 389.807 459.934 392.354C460.744 394.416 461.102 396.629 460.983 398.842C460.968 399.265 460.938 399.688 460.9 400.119C460.666 402.667 460.145 405.298 460.726 407.846C461.391 410.75 463.64 412.776 466.252 414.016C467.981 414.788 469.795 415.351 471.656 415.694C475.506 416.503 479.484 416.897 482.851 418.968H482.858C482.911 419.006 482.964 419.036 483.009 419.067C483.017 419.067 483.017 419.067 483.017 419.074C483.26 419.219 483.494 419.378 483.719 419.55C483.734 419.558 483.749 419.573 483.764 419.581C483.786 419.596 483.806 419.614 483.824 419.634C483.859 419.673 483.884 419.721 483.897 419.772C483.911 419.823 483.911 419.877 483.9 419.928Z" fill="white"/>
<path d="M451.485 381.885C452.857 380.181 453.579 378.044 453.523 375.856C453.467 373.668 452.637 371.571 451.179 369.94C450.884 369.611 450.359 370.056 450.655 370.385C452.015 371.902 452.789 373.855 452.837 375.893C452.885 377.931 452.204 379.919 450.917 381.498C450.638 381.841 451.207 382.227 451.485 381.885Z" fill="white"/>
<path d="M460.522 398.471C456.085 398.987 451.616 397.81 448.007 395.173C447.65 394.911 447.264 395.481 447.621 395.742C451.381 398.479 456.034 399.695 460.651 399.147C461.09 399.094 460.96 398.418 460.522 398.471Z" fill="white"/>
<path d="M435.251 371.373C435.236 371.404 435.22 371.426 435.205 371.457C434.789 372.222 434.208 372.886 433.505 373.398C432.801 373.911 431.992 374.26 431.137 374.421C430.933 374.224 430.714 374.027 430.495 373.838C430.529 373.817 430.568 373.804 430.608 373.801C431.43 373.71 432.219 373.425 432.91 372.969C433.6 372.512 434.172 371.898 434.579 371.177C434.617 371.117 434.654 371.048 434.685 370.988C434.71 370.951 434.742 370.918 434.779 370.894C434.817 370.869 434.859 370.852 434.903 370.843C434.948 370.835 434.993 370.835 435.037 370.844C435.081 370.854 435.123 370.872 435.16 370.897C435.233 370.95 435.282 371.029 435.299 371.117C435.316 371.206 435.299 371.297 435.251 371.373Z" fill="white"/>
<path d="M55.3002 4.11548C41.7281 4.13081 28.7162 9.53794 19.1193 19.1506C9.5223 28.7633 4.12401 41.7964 4.1087 55.3908V251.894C4.12401 265.488 9.5223 278.522 19.1193 288.134C28.7162 297.747 41.7281 303.154 55.3002 303.169H511.7C525.272 303.154 538.284 297.747 547.881 288.134C557.478 278.522 562.876 265.488 562.891 251.894V55.3908C562.876 41.7964 557.478 28.7633 547.881 19.1506C538.284 9.53794 525.272 4.13081 511.7 4.11548H55.3002Z" fill="white"/>
<path d="M511.7 307.285H55.3002C40.6387 307.268 26.5825 301.427 16.2153 291.043C5.84808 280.659 0.0165331 266.579 3.05176e-05 251.894V55.3907C0.0165331 40.7052 5.84808 26.626 16.2153 16.2418C26.5825 5.85762 40.6387 0.0165295 55.3002 0H511.7C526.361 0.0165195 540.417 5.85761 550.785 16.2418C561.152 26.626 566.983 40.7052 567 55.3907V251.894C566.983 266.579 561.152 280.659 550.785 291.043C540.417 301.427 526.361 307.268 511.7 307.285ZM55.3002 8.23081C42.8174 8.24495 30.8499 13.2181 22.0232 22.0592C13.1965 30.9004 8.2315 42.8874 8.21739 55.3907V251.894C8.2315 264.397 13.1965 276.384 22.0232 285.225C30.8499 294.067 42.8174 299.04 55.3002 299.054H511.7C524.183 299.04 536.15 294.067 544.977 285.225C553.803 276.384 558.768 264.397 558.783 251.894V55.3907C558.768 42.8874 553.803 30.9004 544.977 22.0592C536.15 13.2181 524.183 8.24495 511.7 8.23081H55.3002Z" fill="#E6E6E6"/>
<path d="M284.725 44.7993H67.6768C63.0444 44.8073 58.604 46.6541 55.3284 49.935C52.0528 53.216 50.2091 57.6636 50.2011 62.3036V160.36C50.1992 161.401 50.2955 162.439 50.4888 163.461C50.5572 163.927 50.6668 164.38 50.7763 164.832C51.7706 168.564 53.9652 171.863 57.0204 174.219C60.0757 176.575 63.8211 177.856 67.6768 177.865H284.725C285.082 177.865 285.438 177.851 285.78 177.823H286.027V177.81C286.095 177.812 286.164 177.807 286.232 177.796C286.3 177.796 286.383 177.782 286.451 177.782C286.475 177.784 286.499 177.78 286.52 177.769C286.67 177.755 286.821 177.741 286.958 177.727C287.204 177.686 287.451 177.659 287.684 177.618C287.714 177.606 287.747 177.602 287.78 177.604C287.822 177.583 287.869 177.574 287.917 177.577C287.922 177.571 287.928 177.567 287.936 177.565C287.943 177.563 287.95 177.562 287.958 177.563C288.108 177.535 288.259 177.508 288.41 177.467C288.493 177.455 288.576 177.437 288.656 177.412C288.957 177.343 289.259 177.275 289.546 177.179C289.683 177.138 289.807 177.11 289.943 177.069C290.122 177.014 290.313 176.945 290.491 176.877C290.585 176.851 290.676 176.819 290.765 176.781C290.776 176.781 290.786 176.778 290.796 176.773C290.805 176.769 290.814 176.762 290.82 176.754C291.216 176.614 291.605 176.453 291.984 176.273C292.313 176.122 292.628 175.958 292.943 175.793C293.066 175.738 293.176 175.67 293.299 175.601C293.329 175.588 293.357 175.569 293.381 175.546C293.696 175.354 294.011 175.162 294.312 174.984C294.326 174.97 294.326 174.956 294.34 174.956C294.342 174.956 294.343 174.956 294.345 174.955C294.347 174.955 294.348 174.954 294.35 174.953C294.351 174.951 294.352 174.95 294.353 174.948C294.353 174.946 294.354 174.945 294.354 174.943C294.676 174.74 294.987 174.521 295.285 174.284H295.299C295.381 174.216 295.449 174.161 295.518 174.106C295.613 174.037 295.709 173.955 295.792 173.886C295.956 173.749 296.12 173.612 296.271 173.475C296.364 173.405 296.451 173.327 296.531 173.242C296.764 173.036 296.983 172.816 297.202 172.597C297.319 172.485 297.429 172.366 297.531 172.24C297.701 172.077 297.861 171.902 298.01 171.719C298.147 171.541 298.298 171.362 298.435 171.184C298.597 170.997 298.748 170.8 298.887 170.594C299.133 170.265 299.352 169.936 299.572 169.579C299.75 169.291 299.928 168.989 300.092 168.687C300.174 168.536 300.256 168.372 300.339 168.207C300.352 168.207 300.352 168.193 300.352 168.18C300.503 167.892 300.64 167.603 300.763 167.302C300.818 167.178 300.873 167.069 300.914 166.945C301.023 166.712 301.105 166.465 301.201 166.218C301.352 165.765 301.503 165.299 301.626 164.832C301.735 164.38 301.845 163.927 301.913 163.461C302.107 162.439 302.203 161.401 302.201 160.36V62.3036C302.193 57.6636 300.349 53.216 297.074 49.935C293.798 46.6541 289.358 44.8073 284.725 44.7993Z" fill="#2D7D2D"/>
<path opacity="0.3" d="M302.201 72.9214H50.2011V74.2932H302.201V72.9214Z" fill="white"/>
<path opacity="0.3" d="M302.201 88.0112H50.2011V89.383H302.201V88.0112Z" fill="white"/>
<path opacity="0.3" d="M302.201 103.101H50.2011V104.473H302.201V103.101Z" fill="white"/>
<path opacity="0.3" d="M302.201 118.191H50.2011V119.563H302.201V118.191Z" fill="white"/>
<path opacity="0.3" d="M302.201 133.281H50.2011V134.653H302.201V133.281Z" fill="white"/>
<path opacity="0.3" d="M302.201 148.371H50.2011V149.743H302.201V148.371Z" fill="white"/>
<path opacity="0.3" d="M301.913 163.461C301.845 163.927 301.735 164.38 301.626 164.832H50.3929C50.3103 164.379 50.2554 163.921 50.2285 163.461H301.913Z" fill="white"/>
<g opacity="0.1">
<path opacity="0.1" d="M302.201 139.125V160.36C302.203 161.401 302.107 162.439 301.913 163.461C301.845 163.927 301.735 164.38 301.626 164.832C301.503 165.299 301.352 165.765 301.201 166.218C301.105 166.465 301.023 166.712 300.914 166.945C300.873 167.068 300.818 167.178 300.763 167.302C300.64 167.603 300.503 167.892 300.352 168.18C300.352 168.193 300.352 168.207 300.338 168.207C300.256 168.372 300.174 168.536 300.092 168.687C299.928 168.989 299.75 169.291 299.572 169.579C299.352 169.935 299.133 170.265 298.887 170.594C298.748 170.8 298.597 170.997 298.435 171.184C298.298 171.362 298.147 171.541 298.01 171.719C297.861 171.902 297.701 172.076 297.531 172.24C297.429 172.366 297.319 172.485 297.202 172.597C296.983 172.816 296.764 173.036 296.531 173.242C296.451 173.326 296.364 173.404 296.271 173.475C296.12 173.612 295.956 173.749 295.792 173.886C295.709 173.955 295.614 174.037 295.518 174.106C295.449 174.161 295.381 174.216 295.299 174.284H295.285C294.987 174.52 294.676 174.74 294.354 174.943C294.354 174.944 294.353 174.946 294.353 174.948C294.352 174.95 294.351 174.951 294.35 174.952C294.348 174.954 294.347 174.955 294.345 174.955C294.343 174.956 294.342 174.956 294.34 174.956C294.326 174.956 294.326 174.97 294.312 174.984C294.121 175.121 293.915 175.244 293.71 175.368C293.6 175.436 293.491 175.491 293.381 175.546C293.357 175.569 293.329 175.588 293.299 175.601C293.176 175.67 293.066 175.738 292.943 175.793C292.628 175.958 292.313 176.122 291.984 176.273C291.605 176.453 291.216 176.613 290.82 176.753C290.814 176.762 290.805 176.769 290.796 176.773C290.786 176.778 290.776 176.781 290.765 176.781C290.676 176.819 290.585 176.851 290.491 176.877C290.313 176.945 290.122 177.014 289.943 177.069C289.807 177.11 289.683 177.137 289.546 177.179C289.259 177.275 288.957 177.343 288.656 177.412C288.576 177.437 288.493 177.455 288.41 177.467C288.259 177.508 288.108 177.535 287.958 177.563C287.95 177.562 287.943 177.562 287.936 177.565C287.928 177.567 287.922 177.571 287.917 177.576C287.869 177.573 287.822 177.583 287.78 177.604C287.747 177.602 287.714 177.606 287.684 177.618C287.451 177.659 287.204 177.686 286.958 177.727C286.821 177.741 286.67 177.755 286.52 177.768C286.499 177.78 286.475 177.784 286.451 177.782C286.3 177.796 286.163 177.81 286.027 177.823H285.999C285.848 177.837 285.698 177.837 285.547 177.851C285.273 177.864 284.999 177.864 284.725 177.864H67.6768C63.821 177.856 60.0757 176.575 57.0204 174.219C53.9652 171.863 51.7706 168.564 50.7763 164.832H50.3929C50.3103 164.379 50.2554 163.921 50.2285 163.461C50.2148 163.2 50.2011 162.925 50.2011 162.665V138.741C53.0756 138.826 55.9263 139.291 58.6787 140.126C66.1291 142.403 73.3741 146.258 81.1532 146.258C81.7695 146.258 82.4133 146.231 83.0432 146.176C91.2333 145.49 97.6017 140.401 102.902 134.653C103.326 134.2 103.751 133.747 104.148 133.281C105.148 132.17 106.107 131.031 107.038 129.906C110.013 126.142 113.348 122.678 116.995 119.563C117.584 119.083 118.173 118.63 118.775 118.191C122.311 115.549 126.476 113.88 130.855 113.348C131.416 113.294 131.978 113.252 132.539 113.239C138.401 113.06 143.907 115.173 148.919 118.191C149.645 118.63 150.371 119.083 151.07 119.563C153.466 121.19 155.775 122.944 157.986 124.817C161.399 127.82 164.965 130.645 168.668 133.281C168.942 133.473 169.216 133.665 169.49 133.83C169.915 134.118 170.353 134.392 170.791 134.653C174.543 137.068 178.762 138.662 183.172 139.33C183.323 139.358 183.487 139.385 183.652 139.399C190.787 140.236 197.429 138.123 203.497 134.653C204.25 134.214 205.017 133.761 205.756 133.281C210.496 130.126 214.938 126.544 219.027 122.581C220.096 121.579 221.178 120.564 222.301 119.563C222.807 119.11 223.314 118.644 223.835 118.191C231.97 111.03 241.351 104.473 252.431 104.473C252.897 104.473 253.376 104.487 253.855 104.514C261.826 104.898 268.825 108.767 274.7 113.678C276.407 115.096 278.039 116.603 279.59 118.191C279.658 118.26 279.713 118.314 279.781 118.383C280.165 118.767 280.548 119.165 280.904 119.563C285.287 124.158 289.327 129.069 294.093 133.281C294.614 133.761 295.148 134.214 295.696 134.653C297.339 136.019 299.078 137.266 300.9 138.384C301.325 138.645 301.763 138.891 302.201 139.125Z" fill="black"/>
</g>
<g opacity="0.1">
<path opacity="0.1" d="M302.201 118.397V160.36C302.203 161.401 302.107 162.439 301.913 163.461C301.845 163.927 301.735 164.38 301.626 164.832C301.503 165.299 301.352 165.765 301.201 166.218C301.105 166.465 301.023 166.712 300.914 166.945C300.873 167.069 300.818 167.178 300.763 167.302C300.64 167.603 300.503 167.892 300.352 168.18C300.352 168.193 300.352 168.207 300.338 168.207C300.256 168.372 300.174 168.536 300.092 168.687C299.928 168.989 299.75 169.291 299.572 169.579C299.352 169.936 299.133 170.265 298.887 170.594C298.748 170.8 298.597 170.997 298.435 171.184C298.298 171.362 298.147 171.541 298.01 171.719C297.861 171.902 297.701 172.077 297.531 172.24C297.429 172.366 297.319 172.485 297.202 172.597C296.983 172.816 296.764 173.036 296.531 173.242C296.451 173.326 296.364 173.404 296.271 173.475C296.12 173.612 295.956 173.749 295.792 173.886C295.709 173.955 295.614 174.037 295.518 174.106C295.449 174.161 295.381 174.216 295.299 174.284H295.285C294.987 174.52 294.676 174.74 294.354 174.943C294.354 174.944 294.353 174.946 294.353 174.948C294.352 174.95 294.351 174.951 294.35 174.952C294.348 174.954 294.347 174.955 294.345 174.955C294.343 174.956 294.342 174.956 294.34 174.956C294.326 174.956 294.326 174.97 294.312 174.984C294.121 175.121 293.915 175.244 293.71 175.368C293.6 175.437 293.491 175.491 293.381 175.546C293.357 175.569 293.329 175.588 293.299 175.601C293.176 175.67 293.066 175.738 292.943 175.793C292.628 175.958 292.313 176.122 291.984 176.273C291.605 176.453 291.216 176.613 290.82 176.753C290.814 176.762 290.805 176.769 290.796 176.773C290.786 176.778 290.776 176.781 290.765 176.781C290.676 176.819 290.585 176.851 290.491 176.877C290.313 176.945 290.122 177.014 289.943 177.069C289.807 177.11 289.683 177.137 289.546 177.179C289.259 177.275 288.957 177.343 288.656 177.412C288.576 177.437 288.493 177.455 288.41 177.467C288.259 177.508 288.108 177.535 287.958 177.563C287.95 177.562 287.943 177.563 287.936 177.565C287.928 177.567 287.922 177.571 287.917 177.576C287.869 177.573 287.822 177.583 287.78 177.604C287.747 177.602 287.714 177.606 287.684 177.618C287.451 177.659 287.204 177.686 286.958 177.727C286.821 177.741 286.67 177.755 286.52 177.769C286.499 177.78 286.475 177.784 286.451 177.782C286.383 177.782 286.3 177.796 286.232 177.796C286.164 177.807 286.095 177.812 286.027 177.81C285.968 177.822 285.908 177.826 285.848 177.823H285.78C285.712 177.837 285.629 177.837 285.547 177.851C285.273 177.865 284.999 177.865 284.725 177.865H67.6768C63.8211 177.856 60.0757 176.575 57.0204 174.219C53.9652 171.863 51.7706 168.564 50.7763 164.832C50.6668 164.38 50.5572 163.927 50.4888 163.461C50.2955 162.438 50.1992 161.4 50.2011 160.36V135.929C50.6804 135.517 51.1461 135.092 51.6118 134.653C52.0911 134.2 52.5567 133.747 53.0224 133.281C57.1019 129.028 60.8174 124.439 64.1296 119.563C64.2392 119.412 64.3487 119.275 64.4446 119.124C64.6637 118.808 64.8828 118.507 65.1157 118.191C68.4372 113.322 72.1521 108.734 76.2228 104.473C76.6885 104.007 77.1541 103.554 77.6335 103.101C82.7283 98.2999 88.5352 94.7195 95.383 93.8689C104.819 92.6891 113.598 97.0652 121.364 103.101C121.939 103.554 122.5 104.007 123.062 104.473C125.719 106.64 128.239 109 130.622 111.346C131.252 111.977 131.896 112.608 132.539 113.239C134.197 114.899 135.895 116.559 137.607 118.191C138.1 118.657 138.579 119.11 139.072 119.563C145.92 125.914 153.329 131.498 162.136 133.281C162.738 133.404 163.355 133.514 163.971 133.596C167.298 134.04 170.676 133.934 173.969 133.281C174.517 133.185 175.051 133.061 175.598 132.924C183.843 130.88 191.485 125.736 198.402 119.563C198.895 119.11 199.402 118.657 199.895 118.191C203.428 114.912 206.784 111.401 209.92 107.944C210.961 106.791 212.029 105.625 213.097 104.473C213.535 104.02 213.96 103.568 214.385 103.101C218.968 98.0978 223.982 93.5074 229.368 89.3831C230.011 88.9029 230.655 88.4503 231.299 88.0113C238.544 83.0591 246.46 79.8765 255.157 80.3841C262.333 80.7956 268.893 83.7586 274.796 88.0113C275.399 88.4503 276.001 88.9029 276.604 89.3831C281.096 92.9977 285.195 97.0762 288.834 101.551C289.259 102.059 289.683 102.58 290.108 103.101C290.327 103.362 290.532 103.636 290.752 103.897L291.203 104.473C294.833 109.014 298.325 113.733 302.037 118.191L302.201 118.397Z" fill="black"/>
</g>
<g opacity="0.1">
<path opacity="0.1" d="M302.201 101.071V160.36C302.203 161.401 302.107 162.439 301.913 163.461C301.845 163.927 301.735 164.38 301.626 164.833C301.503 165.299 301.352 165.765 301.201 166.218C301.105 166.465 301.023 166.712 300.914 166.945C300.873 167.069 300.818 167.178 300.763 167.302C300.64 167.604 300.503 167.892 300.352 168.18C300.352 168.193 300.352 168.207 300.338 168.207C300.256 168.372 300.174 168.536 300.092 168.687C299.928 168.989 299.75 169.291 299.572 169.579C299.352 169.936 299.133 170.265 298.887 170.594C298.748 170.8 298.597 170.997 298.435 171.184C298.298 171.362 298.147 171.541 298.01 171.719C297.861 171.903 297.701 172.077 297.531 172.24C297.429 172.366 297.319 172.485 297.202 172.597C296.983 172.816 296.764 173.036 296.531 173.242C296.451 173.327 296.364 173.405 296.271 173.475C296.12 173.612 295.956 173.749 295.792 173.886C295.709 173.955 295.614 174.037 295.518 174.106C295.449 174.161 295.381 174.216 295.299 174.284H295.285C294.987 174.521 294.676 174.74 294.354 174.943C294.354 174.945 294.353 174.946 294.353 174.948C294.352 174.95 294.351 174.951 294.35 174.953C294.348 174.954 294.347 174.955 294.345 174.956C294.343 174.956 294.342 174.957 294.34 174.956C294.326 174.956 294.326 174.97 294.312 174.984C294.121 175.121 293.915 175.245 293.71 175.368C293.6 175.437 293.491 175.491 293.381 175.546C293.357 175.569 293.329 175.588 293.299 175.601C293.176 175.67 293.066 175.738 292.943 175.793C292.628 175.958 292.313 176.122 291.984 176.273C291.605 176.453 291.216 176.614 290.82 176.754C290.814 176.762 290.805 176.769 290.796 176.773C290.786 176.778 290.776 176.781 290.765 176.781C290.676 176.819 290.585 176.851 290.491 176.877C290.313 176.946 290.122 177.014 289.943 177.069C289.807 177.11 289.683 177.138 289.546 177.179C289.259 177.275 288.957 177.343 288.656 177.412C288.576 177.437 288.493 177.455 288.41 177.467C288.259 177.508 288.108 177.535 287.958 177.563C287.95 177.562 287.943 177.563 287.936 177.565C287.928 177.567 287.922 177.571 287.917 177.577C287.869 177.574 287.822 177.583 287.78 177.604C287.747 177.602 287.714 177.606 287.684 177.618C287.451 177.659 287.204 177.686 286.958 177.727C286.821 177.741 286.67 177.755 286.52 177.769C286.499 177.78 286.475 177.784 286.451 177.782C286.383 177.782 286.3 177.796 286.232 177.796C286.164 177.807 286.095 177.812 286.027 177.81C286.019 177.817 286.009 177.822 285.999 177.823H285.78C285.438 177.851 285.082 177.865 284.725 177.865H67.6768C63.8211 177.856 60.0757 176.575 57.0204 174.219C53.9652 171.863 51.7706 168.564 50.7763 164.832C50.6668 164.38 50.5572 163.927 50.4888 163.461C50.2955 162.439 50.1992 161.401 50.2011 160.36V124.94C51.5844 123.143 52.9722 121.351 54.3646 119.563C54.7207 119.096 55.0768 118.644 55.4329 118.191C57.3092 115.777 59.1992 113.39 61.1439 111.058C63.0065 108.822 64.9651 106.613 67.0057 104.473C67.444 104.02 67.8822 103.554 68.3341 103.101C73.5298 97.6795 79.4971 93.0568 86.0426 89.3832C86.9329 88.8894 87.8368 88.4366 88.7544 88.0114C93.6136 85.6876 98.8709 84.3141 104.244 83.9645C111.293 83.6119 118.32 85.0017 124.706 88.0114C125.664 88.4229 126.609 88.8894 127.54 89.3832C134.238 92.8401 140.524 97.6826 146.413 103.101C146.92 103.54 147.399 104.007 147.892 104.473C152.562 108.863 156.986 113.568 161.204 118.191C161.519 118.534 161.834 118.891 162.149 119.234C162.245 119.343 162.355 119.453 162.451 119.563C166.559 124.09 170.942 128.672 175.599 132.924C175.722 133.048 175.859 133.158 175.996 133.281C176.502 133.747 177.009 134.2 177.53 134.653C179.365 136.285 181.255 137.849 183.172 139.331C187.716 142.915 192.667 145.95 197.922 148.371C199.032 148.878 200.155 149.331 201.292 149.743C207.554 152.138 214.311 152.939 220.958 152.075C224.012 151.651 227.004 150.869 229.874 149.743C230.97 149.331 232.038 148.865 233.093 148.371C240.037 145.079 246.309 140.099 252.253 134.653C252.746 134.2 253.239 133.747 253.732 133.281C257.115 130.098 260.402 126.792 263.648 123.596C265.017 122.252 266.414 120.894 267.852 119.563C268.346 119.11 268.852 118.658 269.359 118.191C271.085 116.641 272.865 115.118 274.7 113.678C279.186 110.001 284.12 106.908 289.382 104.473C289.834 104.267 290.3 104.075 290.752 103.897C291.45 103.609 292.148 103.348 292.847 103.101C295.863 102.019 299.008 101.336 302.201 101.071Z" fill="black"/>
</g>
<path d="M104.299 92.1268C106.568 92.1268 108.408 90.2843 108.408 88.0114C108.408 85.7385 106.568 83.896 104.299 83.896C102.03 83.896 100.19 85.7385 100.19 88.0114C100.19 90.2843 102.03 92.1268 104.299 92.1268Z" fill="white"/>
<path d="M167.299 137.396C169.568 137.396 171.408 135.554 171.408 133.281C171.408 131.008 169.568 129.166 167.299 129.166C165.03 129.166 163.19 131.008 163.19 133.281C163.19 135.554 165.03 137.396 167.299 137.396Z" fill="white"/>
<path d="M252.212 107.217C254.481 107.217 256.321 105.374 256.321 103.101C256.321 100.828 254.481 98.9858 252.212 98.9858C249.943 98.9858 248.103 100.828 248.103 103.101C248.103 105.374 249.943 107.217 252.212 107.217Z" fill="white"/>
<path d="M439.103 138.215H342.221C341.762 138.214 341.307 138.304 340.882 138.48C340.457 138.655 340.071 138.913 339.746 139.238C339.421 139.564 339.163 139.95 338.987 140.375C338.811 140.8 338.72 141.256 338.72 141.716C338.72 142.176 338.811 142.632 338.987 143.057C339.163 143.482 339.421 143.869 339.746 144.194C340.071 144.519 340.457 144.777 340.882 144.952C341.307 145.128 341.762 145.218 342.221 145.218H439.103C440.03 145.218 440.919 144.849 441.575 144.192C442.23 143.535 442.599 142.645 442.599 141.716C442.599 140.787 442.23 139.897 441.575 139.24C440.919 138.584 440.03 138.215 439.103 138.215Z" fill="#E6E6E6"/>
<path d="M439.103 191.237H342.221C341.294 191.237 340.405 191.605 339.749 192.262C339.094 192.919 338.725 193.809 338.725 194.738C338.725 195.667 339.094 196.557 339.749 197.214C340.405 197.871 341.294 198.239 342.221 198.239H439.103C440.03 198.239 440.919 197.871 441.575 197.214C442.23 196.557 442.599 195.667 442.599 194.738C442.599 193.809 442.23 192.919 441.575 192.262C440.919 191.605 440.03 191.237 439.103 191.237Z" fill="#E6E6E6"/>
<path d="M439.103 244.259H342.221C341.294 244.259 340.405 244.627 339.749 245.284C339.094 245.941 338.725 246.831 338.725 247.76C338.725 248.689 339.094 249.579 339.749 250.236C340.405 250.893 341.294 251.261 342.221 251.261H439.103C440.03 251.261 440.919 250.893 441.575 250.236C442.23 249.579 442.599 248.689 442.599 247.76C442.599 246.831 442.23 245.941 441.575 245.284C440.919 244.627 440.03 244.259 439.103 244.259Z" fill="#E6E6E6"/>
<path d="M497.806 150.722C502.628 150.722 506.536 146.807 506.536 141.978C506.536 137.149 502.628 133.234 497.806 133.234C492.985 133.234 489.076 137.149 489.076 141.978C489.076 146.807 492.985 150.722 497.806 150.722Z" fill="#F2F2F2"/>
<path d="M496.615 146.529C496.465 146.529 496.316 146.494 496.181 146.426C496.046 146.359 495.929 146.261 495.839 146.14L493.457 142.959C493.38 142.857 493.324 142.74 493.293 142.617C493.261 142.493 493.254 142.364 493.272 142.237C493.29 142.111 493.332 141.989 493.397 141.879C493.462 141.769 493.548 141.673 493.65 141.596C493.753 141.52 493.869 141.464 493.992 141.432C494.116 141.4 494.245 141.393 494.371 141.412C494.497 141.43 494.619 141.473 494.729 141.538C494.838 141.603 494.934 141.689 495.011 141.792L496.569 143.873L500.571 137.86C500.714 137.645 500.936 137.496 501.188 137.446C501.441 137.395 501.703 137.447 501.917 137.59C502.132 137.733 502.281 137.956 502.331 138.209C502.382 138.462 502.33 138.724 502.187 138.939L497.423 146.096C497.337 146.225 497.221 146.332 497.086 146.407C496.95 146.483 496.798 146.524 496.642 146.529L496.615 146.529Z" fill="white"/>
<path d="M497.806 203.744C502.628 203.744 506.536 199.829 506.536 195C506.536 190.171 502.628 186.256 497.806 186.256C492.985 186.256 489.076 190.171 489.076 195C489.076 199.829 492.985 203.744 497.806 203.744Z" fill="#F2F2F2"/>
<path d="M496.615 199.551C496.465 199.551 496.316 199.516 496.181 199.448C496.046 199.381 495.929 199.282 495.839 199.162L493.457 195.981C493.38 195.879 493.324 195.762 493.293 195.639C493.261 195.515 493.254 195.386 493.272 195.259C493.29 195.133 493.332 195.011 493.397 194.901C493.462 194.791 493.548 194.695 493.65 194.618C493.753 194.541 493.869 194.486 493.992 194.454C494.116 194.422 494.245 194.415 494.371 194.434C494.497 194.452 494.619 194.495 494.729 194.56C494.838 194.625 494.934 194.711 495.011 194.814L496.569 196.895L500.571 190.882C500.642 190.776 500.732 190.684 500.838 190.613C500.944 190.542 501.063 190.493 501.188 190.468C501.313 190.443 501.442 190.442 501.567 190.467C501.692 190.492 501.811 190.541 501.917 190.612C502.024 190.683 502.115 190.774 502.186 190.88C502.257 190.986 502.306 191.105 502.331 191.231C502.356 191.356 502.356 191.485 502.331 191.61C502.307 191.735 502.258 191.855 502.187 191.961L497.424 199.118C497.337 199.247 497.221 199.354 497.086 199.429C496.95 199.505 496.798 199.546 496.642 199.55L496.615 199.551Z" fill="white"/>
<path d="M497.806 256.766C502.628 256.766 506.536 252.851 506.536 248.022C506.536 243.193 502.628 239.278 497.806 239.278C492.985 239.278 489.076 243.193 489.076 248.022C489.076 252.851 492.985 256.766 497.806 256.766Z" fill="#F2F2F2"/>
<path d="M439.103 85.1926H342.221C341.294 85.1926 340.405 85.5615 339.749 86.2182C339.094 86.8748 338.725 87.7654 338.725 88.6941C338.725 89.6227 339.094 90.5133 339.749 91.17C340.405 91.8266 341.294 92.1956 342.221 92.1956H439.103C440.03 92.1956 440.919 91.8266 441.575 91.17C442.23 90.5133 442.599 89.6227 442.599 88.6941C442.599 87.7654 442.23 86.8748 441.575 86.2182C440.919 85.5615 440.03 85.1926 439.103 85.1926Z" fill="#E6E6E6"/>
<path d="M497.806 97.7001C502.628 97.7001 506.536 93.7852 506.536 88.9559C506.536 84.1266 502.628 80.2117 497.806 80.2117C492.985 80.2117 489.076 84.1266 489.076 88.9559C489.076 93.7852 492.985 97.7001 497.806 97.7001Z" fill="#2D7D2D"/>
<path d="M496.615 93.5068C496.465 93.5068 496.316 93.4717 496.181 93.4041C496.046 93.3366 495.929 93.2385 495.839 93.1177L493.457 89.9369C493.38 89.8347 493.324 89.7184 493.293 89.5946C493.261 89.4708 493.254 89.3419 493.272 89.2154C493.29 89.0888 493.332 88.9671 493.397 88.857C493.462 88.747 493.548 88.6509 493.65 88.5742C493.753 88.4975 493.869 88.4417 493.992 88.4101C494.116 88.3784 494.245 88.3714 494.371 88.3896C494.497 88.4078 494.619 88.4507 494.729 88.5159C494.838 88.5811 494.934 88.6674 495.011 88.7698L496.569 90.8506L500.571 84.8379C500.642 84.7316 500.732 84.6403 500.838 84.5693C500.944 84.4982 501.063 84.4487 501.188 84.4237C501.313 84.3986 501.442 84.3985 501.567 84.4233C501.692 84.4481 501.811 84.4973 501.917 84.5681C502.024 84.639 502.115 84.7301 502.186 84.8362C502.257 84.9424 502.306 85.0615 502.331 85.1867C502.356 85.312 502.356 85.4409 502.331 85.5662C502.307 85.6915 502.258 85.8107 502.187 85.917L497.423 93.0737C497.337 93.2031 497.221 93.31 497.086 93.3853C496.95 93.4606 496.798 93.5022 496.642 93.5065L496.615 93.5068Z" fill="white"/>
<path d="M468.842 97.7001C473.663 97.7001 477.572 93.7852 477.572 88.9559C477.572 84.1266 473.663 80.2117 468.842 80.2117C464.02 80.2117 460.112 84.1266 460.112 88.9559C460.112 93.7852 464.02 97.7001 468.842 97.7001Z" fill="#F2F2F2"/>
<path d="M468.842 150.722C473.663 150.722 477.572 146.807 477.572 141.978C477.572 137.149 473.663 133.234 468.842 133.234C464.02 133.234 460.112 137.149 460.112 141.978C460.112 146.807 464.02 150.722 468.842 150.722Z" fill="#F2F2F2"/>
<path d="M468.842 203.744C473.663 203.744 477.572 199.829 477.572 195C477.572 190.171 473.663 186.256 468.842 186.256C464.02 186.256 460.112 190.171 460.112 195C460.112 199.829 464.02 203.744 468.842 203.744Z" fill="#F2F2F2"/>
<path d="M468.842 256.766C473.663 256.766 477.572 252.851 477.572 248.022C477.572 243.193 473.663 239.278 468.842 239.278C464.02 239.278 460.112 243.193 460.112 248.022C460.112 252.851 464.02 256.766 468.842 256.766Z" fill="#F2F2F2"/>
<path d="M496.615 252.573C496.465 252.573 496.316 252.538 496.181 252.47C496.046 252.403 495.929 252.304 495.839 252.184L493.457 249.003C493.38 248.901 493.325 248.784 493.293 248.661C493.261 248.537 493.254 248.408 493.272 248.282C493.29 248.155 493.333 248.034 493.398 247.924C493.463 247.814 493.549 247.718 493.651 247.641C493.753 247.564 493.869 247.509 493.993 247.477C494.116 247.445 494.245 247.438 494.371 247.456C494.497 247.474 494.619 247.517 494.729 247.582C494.838 247.647 494.934 247.734 495.011 247.836L496.569 249.917L500.571 243.904C500.714 243.689 500.936 243.54 501.188 243.49C501.441 243.439 501.703 243.491 501.917 243.634C502.132 243.777 502.281 244 502.331 244.253C502.382 244.506 502.33 244.768 502.187 244.983L497.423 252.14C497.337 252.269 497.221 252.376 497.085 252.451C496.95 252.527 496.798 252.568 496.642 252.572L496.615 252.573Z" fill="white"/>
<path d="M484.028 418.832C484.031 418.882 484.023 418.932 484.003 418.978C483.983 419.024 483.953 419.065 483.915 419.097C483.855 419.142 483.785 419.17 483.711 419.18C483.636 419.196 483.558 419.182 483.493 419.141C483.429 419.1 483.382 419.035 483.364 418.961C482.322 415.453 479.771 412.761 477.355 410.122C475.182 407.756 473.045 405.261 471.951 402.184C471.477 400.961 471.267 399.652 471.334 398.342C471.402 397.032 471.746 395.752 472.343 394.585C472.719 393.887 473.156 393.224 473.649 392.604C474.729 391.228 476.012 390.003 477.167 388.703C477.288 388.567 477.408 388.423 477.522 388.287C477.68 388.113 477.824 387.932 477.959 387.75C479.399 385.966 480.4 383.869 480.881 381.626C481.396 378.891 481.475 376.092 481.115 373.332C480.964 371.865 480.755 370.408 480.488 368.962C480.473 368.894 480.465 368.833 480.45 368.773C479.285 362.568 477.167 356.582 474.17 351.028C474.057 350.824 473.951 350.619 473.838 350.423C473.355 349.546 472.857 348.684 472.328 347.837C472.509 347.709 472.706 347.588 472.902 347.474C474.633 350.282 476.14 353.222 477.408 356.267C479.048 360.174 480.28 364.241 481.084 368.402C481.137 368.629 481.175 368.863 481.213 369.09C481.53 370.837 481.764 372.606 481.907 374.368C482.191 377.132 482.002 379.924 481.349 382.624C480.756 384.766 479.708 386.755 478.276 388.453C478.02 388.778 477.748 389.096 477.461 389.406C476.314 390.661 475.046 391.878 474.012 393.247C473.483 393.935 473.035 394.68 472.676 395.47C471.46 398.192 472.034 401.17 473.378 403.726C475.808 408.376 480.443 411.544 482.911 416.103C483.367 416.943 483.736 417.827 484.013 418.742C484.022 418.771 484.027 418.802 484.028 418.832Z" fill="white"/>
<path d="M480.9 369.17C483.02 368.637 484.881 367.366 486.152 365.585C487.422 363.805 488.019 361.629 487.836 359.448C487.798 359.007 487.112 359.046 487.15 359.488C487.324 361.519 486.768 363.545 485.581 365.201C484.395 366.857 482.656 368.033 480.68 368.518C480.25 368.624 480.473 369.275 480.9 369.17Z" fill="white"/>
<path d="M478.147 387.862C474.293 385.599 471.433 381.964 470.137 377.682C470.009 377.258 469.358 377.479 469.486 377.903C470.843 382.356 473.828 386.133 477.843 388.48C478.226 388.703 478.528 388.085 478.147 387.862Z" fill="white"/>
<path d="M474.253 350.99C474.223 351.005 474.2 351.013 474.17 351.028C472.811 351.649 471.264 351.722 469.852 351.232C469.914 351.01 469.993 350.792 470.086 350.582C471.312 351.003 472.652 350.946 473.838 350.423C473.906 350.4 473.966 350.37 474.034 350.34C474.12 350.31 474.215 350.316 474.297 350.355C474.379 350.395 474.442 350.465 474.472 350.551C474.497 350.639 474.488 350.732 474.448 350.813C474.407 350.894 474.338 350.957 474.253 350.99Z" fill="white"/>
<path d="M436.627 235.134C437.287 234.338 437.765 233.406 438.026 232.405C438.288 231.404 438.328 230.358 438.142 229.34C437.957 228.322 437.55 227.357 436.952 226.513C436.354 225.669 435.579 224.967 434.68 224.456L439.238 199.719L427.221 204.815L424.734 227.525C423.977 229.093 423.821 230.886 424.295 232.562C424.769 234.238 425.841 235.682 427.306 236.62C428.772 237.558 430.531 237.925 432.249 237.651C433.966 237.377 435.524 236.481 436.627 235.134Z" fill="#FFB6B6"/>
<path d="M443.961 161.918L440.142 149.058L413.209 106.967C411.711 105.214 409.921 103.736 407.918 102.597C403.937 100.318 399.297 99.4743 394.771 100.207C390.244 100.939 386.105 103.204 383.043 106.622C379.982 110.041 378.182 114.407 377.945 118.994C377.708 123.58 379.047 128.11 381.74 131.827C382.295 132.603 382.908 133.336 383.574 134.019L418.455 170.054L420.441 172.11L423.581 180.064L424.819 216.333L425.928 216.598L435.703 218.904L437.07 219.229L439.357 207.381L440.791 201.718C442.011 196.889 442.627 191.926 442.625 186.944C442.625 185.41 442.573 183.867 442.452 182.332L443.961 161.918Z" fill="#3F3D56"/>
<path d="M406.937 412.019H397.584L393.135 375.886L406.938 375.887L406.937 412.019Z" fill="#FFB6B6"/>
<path d="M406.688 408.958L396.709 404.898L396.414 404.777L390.904 408.958C387.88 408.958 384.973 410.127 382.789 412.221C380.604 414.316 379.312 417.175 379.181 420.201C379.166 420.367 379.166 420.541 379.166 420.715V421.1H409.322V408.958H406.688Z" fill="#2F2E41"/>
<path d="M389.126 393.333L381.065 398.083L358.936 369.203L370.832 362.192L389.126 393.333Z" fill="#FFB6B6"/>
<path d="M394.693 398.093L393.599 396.226L389.636 389.481L387.575 390.699L387.364 390.82L376.705 392.392L376.388 392.438L373.762 398.842C372.433 399.624 371.271 400.662 370.342 401.894C369.413 403.127 368.736 404.531 368.349 406.026C367.962 407.52 367.873 409.077 368.087 410.606C368.301 412.135 368.813 413.608 369.595 414.939L369.791 415.264L395.78 399.946L394.693 398.093Z" fill="#2F2E41"/>
<path d="M418.782 191.125C423.166 204.371 422.703 218.749 417.728 234.181L416.429 287.231L412.258 320.694C414.774 327.251 416.064 334.215 416.065 341.239C416.047 359.651 414.811 385.808 408.545 398.096H393.715L390.368 343.376L386.373 315.864L385.881 286.382L385.451 260.67L369.327 284.286L353.659 307.235L369.232 333.547L382.82 375.887L368.478 387.984L352.208 357.089L344.323 347.913L322.798 301.24L324.732 294.741C328.716 281.358 334.502 268.582 341.93 256.764L363.34 206.991L418.782 191.125Z" fill="#2F2E41"/>
<path d="M420.682 186.702L418.237 181.803L418.455 170.054L419.188 130.33C419.276 125.184 418.323 120.075 416.386 115.308C414.449 110.542 411.568 106.218 407.918 102.597C405.752 100.435 403.328 98.5481 400.702 96.9793L395.448 93.834L392.791 87.0747L368.289 87.672L368.236 94.2272L368.213 96.5332L359.435 110.551L359.442 110.611L359.623 136.121L359.986 186.899L362.409 194.77L358.748 203.933L360.695 209.77L362.25 209.521L414.621 201.136C417.001 200.371 419.022 198.764 420.305 196.615C420.563 196.194 420.788 195.755 420.977 195.299C421.548 193.929 421.817 192.452 421.766 190.969C421.716 189.485 421.346 188.03 420.682 186.702Z" fill="#3F3D56"/>
<path d="M378.293 78.6669C390.59 78.6669 400.558 68.6824 400.558 56.3659C400.558 44.0494 390.59 34.0649 378.293 34.0649C365.997 34.0649 356.029 44.0494 356.029 56.3659C356.029 68.6824 365.997 78.6669 378.293 78.6669Z" fill="#FFB6B6"/>
<path d="M392.143 74.8451C394.495 73.1878 396.876 70.0329 398.462 67.6712C400.565 64.5664 401.992 61.0538 402.652 57.3612C403.312 53.6685 403.191 49.878 402.295 46.2355C402.005 44.7781 401.324 43.4276 400.324 42.3295C399.813 41.7934 399.146 41.4331 398.418 41.2999C397.691 41.1668 396.939 41.2678 396.272 41.5884C396.609 40.6468 396.749 39.6461 396.684 38.6482C396.619 37.6502 396.351 36.6762 395.895 35.7862C394.971 34.0093 393.646 32.4725 392.026 31.2977C388.926 28.9744 385.256 27.5351 381.405 27.1324C377.555 26.7298 373.667 27.3789 370.155 29.0108C368.773 29.6755 370.988 24.6591 369.539 25.16C368.101 25.7408 366.493 25.7348 365.06 25.1432C363.681 24.4719 359.2 28.6358 359.705 27.1863C358.673 27.6731 357.78 28.4137 357.111 29.3392C356.441 30.2646 356.016 31.3447 355.875 32.4789C355.735 33.6131 355.883 34.7646 356.306 35.826C356.729 36.8874 357.414 37.8242 358.296 38.5493C359.458 39.5048 360.901 40.0443 362.17 40.8517C364.396 42.3743 365.988 44.6605 366.645 47.2785C367.303 49.8966 366.981 52.6652 365.74 55.0618C367.052 54.1916 368.496 53.5394 370.015 53.1302C370.778 52.9326 371.576 52.9202 372.345 53.0941C373.113 53.2679 373.828 53.6229 374.432 54.1296C374.938 54.694 375.324 55.3561 375.565 56.0752C375.807 56.7943 375.899 57.5552 375.836 58.3113C375.807 59.8252 375.468 61.321 375.449 62.8351C375.392 67.2778 373.134 75.754 376.604 78.067C379.343 79.8922 388.933 77.1078 392.143 74.8451Z" fill="#2F2E41"/>
<path d="M254.606 110.609C255.133 111.5 255.848 112.263 256.701 112.847C257.555 113.43 258.525 113.819 259.545 113.986C260.564 114.153 261.608 114.094 262.603 113.813C263.597 113.532 264.518 113.037 265.3 112.361L287.029 124.974L286.276 111.924L265.757 101.947C264.537 100.706 262.904 99.956 261.168 99.8398C259.433 99.7237 257.715 100.249 256.34 101.317C254.966 102.385 254.03 103.92 253.71 105.633C253.391 107.346 253.709 109.116 254.606 110.609Z" fill="#FFB6B6"/>
<path d="M394.927 106.703C394.084 104.064 392.706 101.628 390.878 99.5482C389.05 97.4686 386.812 95.7902 384.305 94.6186C381.799 93.447 379.077 92.8074 376.312 92.7401C373.546 92.6727 370.797 93.1791 368.236 94.2274C367.995 94.3257 367.753 94.4315 367.511 94.5374L319.308 116.516L300.542 114.286L276.252 105.788L275.633 106.748L270.175 115.193L269.413 116.373L295.47 131.804L298.232 132.379C300.638 132.877 302.922 133.847 304.953 135.231C306.984 136.615 308.722 138.388 310.068 140.446L320.168 143.773L359.623 136.121L381.74 131.827L382.993 131.585C386.783 130.124 390.043 127.548 392.343 124.195C394.643 120.843 395.875 116.872 395.878 112.804C395.88 110.733 395.559 108.675 394.927 106.703Z" fill="#3F3D56"/>
<path d="M507.094 422H244.42C244.181 422 243.953 421.905 243.784 421.736C243.616 421.567 243.521 421.338 243.521 421.1C243.521 420.861 243.616 420.632 243.784 420.463C243.953 420.294 244.181 420.199 244.42 420.199H507.094C507.333 420.199 507.561 420.294 507.73 420.463C507.898 420.632 507.993 420.861 507.993 421.1C507.993 421.338 507.898 421.567 507.73 421.736C507.561 421.905 507.333 422 507.094 422Z" fill="#CCCCCC"/>
<path d="M224.376 211.652H64.8431C63.9169 211.653 63.0291 212.023 62.3746 212.679C61.7201 213.336 61.3525 214.226 61.3525 215.153C61.3525 216.081 61.7201 216.971 62.3746 217.627C63.0291 218.284 63.9169 218.653 64.8431 218.655H224.376C224.836 218.655 225.291 218.565 225.716 218.39C226.14 218.214 226.526 217.956 226.851 217.631C227.177 217.306 227.435 216.92 227.611 216.494C227.787 216.069 227.877 215.614 227.877 215.153C227.877 214.693 227.787 214.237 227.611 213.812C227.435 213.387 227.177 213.001 226.851 212.676C226.526 212.35 226.14 212.093 225.716 211.917C225.291 211.741 224.836 211.651 224.376 211.652H224.376Z" fill="#E6E6E6"/>
<path d="M283.08 224.159C287.901 224.159 291.81 220.244 291.81 215.415C291.81 210.586 287.901 206.671 283.08 206.671C278.258 206.671 274.35 210.586 274.35 215.415C274.35 220.244 278.258 224.159 283.08 224.159Z" fill="#2D7D2D"/>
<path d="M281.889 219.966C281.738 219.966 281.589 219.931 281.455 219.863C281.32 219.796 281.202 219.698 281.112 219.577L278.73 216.396C278.654 216.294 278.598 216.178 278.567 216.054C278.535 215.93 278.528 215.801 278.546 215.675C278.564 215.549 278.607 215.427 278.672 215.317C278.737 215.207 278.823 215.111 278.925 215.034C279.027 214.958 279.143 214.902 279.266 214.87C279.39 214.839 279.518 214.832 279.645 214.85C279.771 214.868 279.892 214.911 280.002 214.976C280.112 215.041 280.208 215.127 280.284 215.229L281.842 217.31L285.844 211.297C285.915 211.191 286.006 211.1 286.112 211.029C286.218 210.957 286.337 210.908 286.462 210.883C286.587 210.858 286.716 210.858 286.841 210.883C286.966 210.907 287.085 210.957 287.191 211.027C287.297 211.098 287.388 211.189 287.459 211.295C287.53 211.402 287.579 211.521 287.604 211.646C287.629 211.771 287.63 211.9 287.605 212.025C287.58 212.151 287.531 212.27 287.46 212.376L282.697 219.533C282.611 219.662 282.495 219.769 282.359 219.845C282.223 219.92 282.071 219.961 281.916 219.966L281.889 219.966Z" fill="white"/>
<path d="M254.115 224.159C258.937 224.159 262.845 220.244 262.845 215.415C262.845 210.586 258.937 206.671 254.115 206.671C249.294 206.671 245.385 210.586 245.385 215.415C245.385 220.244 249.294 224.159 254.115 224.159Z" fill="#F2F2F2"/>
<path d="M223.621 253.992H64.0883C63.162 253.993 62.2742 254.363 61.6198 255.019C60.9653 255.676 60.5977 256.566 60.5977 257.493C60.5977 258.421 60.9653 259.311 61.6198 259.967C62.2742 260.624 63.162 260.993 64.0883 260.995H223.622C224.549 260.995 225.438 260.626 226.093 259.969C226.749 259.313 227.117 258.422 227.117 257.493C227.117 256.565 226.749 255.674 226.093 255.017C225.438 254.361 224.549 253.992 223.622 253.992H223.621Z" fill="#E6E6E6"/>
<path d="M282.325 266.5C287.146 266.5 291.055 262.585 291.055 257.755C291.055 252.926 287.146 249.011 282.325 249.011C277.504 249.011 273.595 252.926 273.595 257.755C273.595 262.585 277.504 266.5 282.325 266.5Z" fill="#F2F2F2"/>
<path d="M281.134 262.306C280.983 262.306 280.835 262.271 280.7 262.203C280.565 262.136 280.448 262.038 280.357 261.917L277.976 258.736C277.821 258.53 277.755 258.27 277.791 258.015C277.828 257.76 277.964 257.529 278.17 257.375C278.376 257.22 278.635 257.153 278.89 257.19C279.145 257.226 279.375 257.363 279.529 257.569L281.087 259.65L285.089 253.637C285.16 253.531 285.251 253.44 285.357 253.369C285.463 253.298 285.582 253.248 285.707 253.223C285.832 253.198 285.961 253.198 286.086 253.223C286.211 253.247 286.33 253.297 286.436 253.367C286.542 253.438 286.633 253.529 286.704 253.636C286.775 253.742 286.825 253.861 286.85 253.986C286.875 254.111 286.875 254.24 286.85 254.366C286.825 254.491 286.776 254.61 286.705 254.716L281.942 261.873C281.856 262.002 281.74 262.109 281.604 262.185C281.468 262.26 281.316 262.302 281.161 262.306L281.134 262.306Z" fill="white"/>
<path d="M253.36 266.5C258.182 266.5 262.09 262.585 262.09 257.755C262.09 252.926 258.182 249.011 253.36 249.011C248.539 249.011 244.63 252.926 244.63 257.755C244.63 262.585 248.539 266.5 253.36 266.5Z" fill="#F2F2F2"/>
</svg>
