<svg width="653" height="421" viewBox="0 0 653 421" fill="none" xmlns="http://www.w3.org/2000/svg">
<g clip-path="url(#clip0_13_1457)">
<path d="M582.545 403.02L593.282 403.302C596.287 398.529 598.08 393.094 598.507 387.47C591.626 394.764 579.49 392.932 570.603 397.578C567.842 399.048 565.448 401.121 563.597 403.642C561.747 406.163 560.488 409.068 559.913 412.142L555.485 418.341C560.38 419.581 565.485 419.746 570.45 418.824C575.414 417.901 580.12 415.914 584.242 412.999C586.538 411.34 588.617 409.399 590.428 407.222C586.445 405.38 582.545 403.02 582.545 403.02Z" fill="#F2F2F2"/>
<path d="M576.63 386.674L586.367 382.139C586.926 376.527 586.107 370.863 583.981 365.639C581.076 375.236 569.396 379.007 563.514 387.128C561.699 389.675 560.481 392.597 559.949 395.679C559.417 398.761 559.586 401.923 560.443 404.93L559.245 412.452C564.179 411.38 568.822 409.251 572.854 406.212C576.886 403.173 580.211 399.296 582.6 394.849C583.916 392.34 584.91 389.677 585.56 386.92C581.174 387.047 576.63 386.674 576.63 386.674Z" fill="#F2F2F2"/>
<path d="M560.649 412.768H554.063L550.93 387.37H560.65L560.649 412.768Z" fill="#A0616A"/>
<path d="M560.473 410.616L553.446 407.762L553.239 407.677L549.358 410.616C547.229 410.616 545.182 411.437 543.643 412.91C542.105 414.382 541.195 416.392 541.103 418.519C541.093 418.636 541.093 418.758 541.093 418.88V419.151H562.329V410.616L560.473 410.616Z" fill="#2F2E41"/>
<path d="M548.107 399.633L542.43 402.972L526.846 382.671L535.224 377.743L548.107 399.633Z" fill="#A0616A"/>
<path d="M552.027 402.979L551.256 401.666L548.465 396.926L547.014 397.781L546.865 397.866L539.36 398.972L539.136 399.004L537.286 403.505C536.351 404.055 535.532 404.784 534.878 405.651C534.224 406.517 533.747 407.504 533.475 408.555C533.202 409.605 533.14 410.7 533.29 411.775C533.441 412.849 533.802 413.884 534.352 414.82L534.49 415.048L552.792 404.281L552.027 402.979Z" fill="#2F2E41"/>
<path d="M568.99 257.499C572.078 266.81 571.752 276.917 568.248 287.764L567.334 325.053L564.396 348.575C566.168 353.183 567.076 358.079 567.077 363.016C567.064 375.958 566.194 394.344 561.781 402.981H551.338L548.981 364.518L546.168 345.18L545.821 324.457L545.519 306.383L534.164 322.983L523.13 339.114L534.097 357.609L543.665 387.37L533.565 395.874L522.108 374.157L516.555 367.707L501.397 334.9L502.759 330.332C505.565 320.925 509.639 311.944 514.87 303.637V303.637L529.947 268.652L568.99 257.499Z" fill="#2F2E41"/>
<path d="M395.056 264.456H187.825C186.171 264.455 184.586 263.797 183.417 262.628C182.247 261.459 181.59 259.874 181.588 258.221V99.8475C181.59 98.1943 182.248 96.6094 183.417 95.4404C184.586 94.2714 186.171 93.6139 187.825 93.6121H395.056C396.709 93.6139 398.294 94.2714 399.464 95.4404C400.633 96.6094 401.291 98.1943 401.293 99.8475V258.221C401.291 259.874 400.633 261.459 399.464 262.628C398.294 263.797 396.709 264.455 395.056 264.456Z" fill="white"/>
<path d="M395.055 265.229H187.825C185.966 265.227 184.185 264.488 182.87 263.174C181.556 261.86 180.817 260.079 180.815 258.221V99.8473C180.817 97.9891 181.556 96.2077 182.87 94.8939C184.185 93.58 185.966 92.8409 187.825 92.8389H395.055C396.914 92.8409 398.696 93.58 400.01 94.8939C401.324 96.2077 402.064 97.9891 402.066 99.8473V258.221C402.064 260.079 401.324 261.86 400.01 263.174C398.696 264.488 396.914 265.227 395.055 265.229ZM187.825 94.385C186.376 94.3866 184.988 94.9626 183.963 95.9866C182.939 97.0106 182.363 98.399 182.361 99.8473V258.221C182.363 259.669 182.939 261.057 183.963 262.082C184.988 263.106 186.376 263.682 187.825 263.683H395.055C396.504 263.682 397.893 263.106 398.917 262.082C399.941 261.057 400.518 259.669 400.519 258.221V99.8473C400.518 98.399 399.941 97.0106 398.917 95.9866C397.893 94.9626 396.504 94.3866 395.055 94.385H187.825Z" fill="#F0F0F0"/>
<path d="M182.066 234.307V258.221C182.069 259.747 182.676 261.21 183.755 262.289C184.835 263.368 186.298 263.976 187.825 263.978H395.056C396.582 263.976 398.045 263.368 399.125 262.289C400.204 261.21 400.812 259.747 400.814 258.221V234.307H182.066Z" fill="#F0F0F0"/>
<path d="M184.019 94.621L183.186 95.9229L400.397 234.958L401.231 233.656L184.019 94.621Z" fill="#F0F0F0"/>
<path d="M465.295 212.811C465.748 213.406 466.326 213.895 466.988 214.243C467.65 214.591 468.381 214.79 469.128 214.825C469.875 214.86 470.621 214.731 471.313 214.447C472.005 214.163 472.626 213.73 473.133 213.18L489.808 220.431L488.183 211.124L472.598 205.666C471.617 204.876 470.38 204.473 469.122 204.534C467.864 204.595 466.672 205.115 465.772 205.996C464.872 206.876 464.327 208.057 464.239 209.313C464.151 210.569 464.527 211.813 465.295 212.811V212.811Z" fill="#A0616A"/>
<path d="M480.467 207.553L512.322 211.681L545.172 191.896C546.929 190.838 548.89 190.164 550.926 189.919C552.962 189.673 555.027 189.861 556.985 190.471C558.943 191.081 560.75 192.099 562.286 193.457C563.823 194.815 565.054 196.483 565.899 198.352V198.352C567.424 201.733 567.598 205.569 566.386 209.075C565.173 212.581 562.667 215.49 559.379 217.208L515.236 232.935L515.153 232.965L476.423 215.717L480.467 207.553Z" fill="#3F3D56"/>
<path d="M526.986 263.129L529.634 256.51L527.883 250.821L533.071 194.109L533.838 185.514L533.89 179.106L551.632 178.674L553.556 183.559L557.363 185.835C561.515 188.324 564.937 191.862 567.286 196.094C569.635 200.325 570.828 205.1 570.746 209.939L570.058 247.139L571.828 250.68C572.309 251.641 572.577 252.695 572.612 253.77C572.647 254.844 572.449 255.913 572.032 256.904C571.615 257.895 570.988 258.783 570.195 259.509C569.401 260.235 568.461 260.78 567.437 261.108L528.432 272.96L526.986 263.129Z" fill="#3F3D56"/>
<path d="M541.136 172.599C550.039 172.599 557.257 165.383 557.257 156.482C557.257 147.581 550.039 140.365 541.136 140.365C532.233 140.365 525.015 147.581 525.015 156.482C525.015 165.383 532.233 172.599 541.136 172.599Z" fill="#A0616A"/>
<path d="M557.922 159.996C558.403 157.97 558.182 155.121 557.911 153.081C557.563 150.393 556.654 147.807 555.242 145.492C553.831 143.177 551.948 141.184 549.717 139.643C548.862 138.993 547.846 138.59 546.778 138.475C546.244 138.43 545.709 138.555 545.251 138.832C544.793 139.109 544.434 139.524 544.226 140.018C543.957 139.347 543.553 138.738 543.04 138.23C542.527 137.721 541.915 137.322 541.241 137.059C539.889 136.541 538.434 136.345 536.993 136.487C534.199 136.717 531.52 137.699 529.239 139.329C526.959 140.959 525.162 143.176 524.04 145.744C523.609 146.767 522.407 142.989 521.861 143.955C521.36 144.96 520.485 145.728 519.424 146.096C518.355 146.394 517.921 150.798 517.501 149.771C517.174 150.53 517.045 151.359 517.126 152.181C517.206 153.003 517.493 153.791 517.96 154.472C518.427 155.154 519.059 155.706 519.798 156.077C520.536 156.448 521.356 156.627 522.181 156.596C523.26 156.456 524.33 156.252 525.385 155.983C527.321 155.739 529.279 156.212 530.89 157.313C532.501 158.414 533.654 160.067 534.129 161.959C534.423 160.859 534.894 159.813 535.521 158.863C535.84 158.39 536.267 158 536.767 157.725C537.266 157.451 537.824 157.3 538.394 157.284C538.939 157.347 539.466 157.52 539.941 157.793C540.417 158.067 540.831 158.434 541.159 158.873C541.869 159.706 542.402 160.678 543.117 161.507C545.215 163.939 548.052 169.609 551.042 169.195C553.401 168.869 557.266 162.761 557.922 159.996Z" fill="#2F2E41"/>
<path d="M588.487 292.362C588.903 291.74 589.178 291.035 589.292 290.296C589.407 289.557 589.358 288.802 589.149 288.084C588.939 287.366 588.575 286.702 588.082 286.14C587.589 285.578 586.978 285.131 586.293 284.83L587.742 266.708L579.465 271.264L579.357 287.774C578.928 288.958 578.948 290.258 579.414 291.428C579.88 292.598 580.759 293.556 581.884 294.122C583.009 294.687 584.303 294.82 585.52 294.496C586.737 294.172 587.792 293.412 588.487 292.362V292.362Z" fill="#A0616A"/>
<path d="M578.589 279.72L572.159 248.256L542.782 223.609C541.211 222.291 539.937 220.655 539.044 218.81C538.151 216.964 537.659 214.95 537.6 212.9C537.542 210.85 537.918 208.812 538.705 206.918C539.491 205.024 540.67 203.318 542.164 201.913V201.913C544.868 199.374 548.441 197.965 552.151 197.974C555.861 197.983 559.427 199.409 562.12 201.961L591.322 238.603L591.377 238.672L587.625 280.896L578.589 279.72Z" fill="#3F3D56"/>
<path d="M652.079 421H383.008C382.887 421 382.767 420.977 382.655 420.931C382.543 420.885 382.441 420.817 382.356 420.731C382.27 420.646 382.202 420.544 382.155 420.432C382.109 420.321 382.085 420.201 382.085 420.08C382.085 419.959 382.109 419.839 382.155 419.727C382.202 419.615 382.27 419.513 382.356 419.428C382.441 419.342 382.543 419.275 382.655 419.228C382.767 419.182 382.887 419.159 383.008 419.159H652.079C652.2 419.159 652.32 419.182 652.432 419.228C652.544 419.275 652.646 419.342 652.732 419.428C652.818 419.513 652.886 419.615 652.932 419.727C652.979 419.839 653.003 419.959 653.003 420.08C653.003 420.201 652.979 420.321 652.932 420.432C652.886 420.544 652.818 420.646 652.732 420.731C652.646 420.817 652.544 420.885 652.432 420.931C652.32 420.977 652.2 421 652.079 421V421Z" fill="#CCCCCC"/>
<path d="M478.188 271.304H355.911C355.059 271.303 354.242 270.964 353.64 270.362C353.037 269.759 352.698 268.942 352.698 268.091V218.487C352.698 217.635 353.037 216.818 353.64 216.216C354.242 215.613 355.059 215.274 355.911 215.273H478.188C479.04 215.274 479.857 215.613 480.46 216.216C481.062 216.818 481.401 217.635 481.402 218.487V268.091C481.401 268.942 481.062 269.759 480.46 270.362C479.857 270.964 479.04 271.303 478.188 271.304Z" fill="#2D7D2D"/>
<path d="M466.545 295.099H367.554C367.048 295.1 366.545 295.001 366.077 294.807C365.608 294.614 365.183 294.33 364.824 293.972C364.465 293.613 364.181 293.188 363.986 292.72C363.792 292.252 363.692 291.75 363.692 291.243C363.692 290.736 363.792 290.234 363.986 289.766C364.181 289.298 364.465 288.873 364.824 288.515C365.183 288.156 365.608 287.873 366.077 287.679C366.545 287.486 367.048 287.386 367.554 287.387H466.545C471.519 287.318 471.569 295.169 466.545 295.099Z" fill="#E4E4E4"/>
<path d="M466.545 312.772H367.555C366.532 312.772 365.551 312.366 364.827 311.643C364.104 310.92 363.698 309.939 363.698 308.916C363.698 307.894 364.104 306.913 364.827 306.19C365.551 305.467 366.532 305.06 367.555 305.06H466.545C471.519 304.991 471.569 312.842 466.545 312.772Z" fill="#E4E4E4"/>
<path d="M466.545 330.445H367.554C367.048 330.446 366.545 330.347 366.077 330.153C365.608 329.96 365.183 329.676 364.824 329.318C364.465 328.96 364.181 328.534 363.986 328.066C363.792 327.598 363.692 327.096 363.692 326.589C363.692 326.082 363.792 325.581 363.986 325.112C364.181 324.644 364.465 324.219 364.824 323.861C365.183 323.503 365.608 323.219 366.077 323.025C366.545 322.832 367.048 322.733 367.554 322.733H466.545C471.519 322.664 471.569 330.515 466.545 330.445Z" fill="#E4E4E4"/>
<path d="M161.524 358.998L171.763 355.751C173.039 350.257 172.954 344.535 171.516 339.081C167.403 348.225 155.335 350.465 148.459 357.764C146.332 360.057 144.748 362.799 143.825 365.787C142.902 368.774 142.663 371.932 143.126 375.024L140.972 382.33C146.003 381.9 150.881 380.385 155.27 377.889C159.659 375.393 163.455 371.975 166.395 367.872C168.022 365.553 169.351 363.039 170.349 360.388C165.983 359.951 161.524 358.998 161.524 358.998Z" fill="#F2F2F2"/>
<path d="M150.584 345.489L158.299 338.017C156.991 332.531 154.363 327.447 150.643 323.207C151.04 333.225 141.238 340.611 138.339 350.21C137.458 353.21 137.264 356.371 137.77 359.457C138.277 362.543 139.472 365.475 141.266 368.036L142.597 375.536C146.908 372.908 150.598 369.377 153.413 365.186C156.228 360.995 158.101 356.243 158.902 351.259C159.324 348.458 159.391 345.616 159.103 342.798C155 344.354 150.584 345.489 150.584 345.489Z" fill="#F2F2F2"/>
<path d="M171.211 206.379C170.368 206.492 169.511 206.419 168.699 206.165C167.888 205.911 167.142 205.482 166.514 204.908C165.887 204.335 165.392 203.63 165.066 202.845C164.74 202.06 164.59 201.213 164.627 200.363L127.438 162.638L137.82 155.412L171.111 194.767C172.534 194.923 173.85 195.596 174.81 196.658C175.77 197.72 176.307 199.097 176.32 200.529C176.332 201.96 175.819 203.346 174.877 204.424C173.936 205.503 172.631 206.198 171.211 206.379Z" fill="#FFB6B6"/>
<path d="M115.997 146.32C115.997 146.32 113.361 147.899 117.748 152.709C121.26 156.559 136.586 175.072 142.704 178.937C142.036 180.863 158.958 199.301 160.737 200.477L170.142 188.742C169.605 185.378 151.099 169.315 149.824 169.724L143.923 162.391L130.553 139.969L117.882 145.144L115.997 146.32Z" fill="#2D7D2D"/>
<path d="M86.6276 371.105H93.6384L96.9748 344.068H86.6268L86.6276 371.105Z" fill="#FFB6B6"/>
<path d="M84.3392 366.304L95.5403 365.635V370.433L106.189 377.787C106.715 378.15 107.112 378.671 107.32 379.276C107.528 379.88 107.538 380.535 107.348 381.145C107.158 381.755 106.778 382.288 106.263 382.667C105.748 383.046 105.125 383.25 104.486 383.25H91.1507L88.8522 378.504L87.9547 383.25H82.9268L84.3392 366.304Z" fill="#2F2E41"/>
<path d="M126.01 371.105H133.021L136.357 344.068H126.01V371.105Z" fill="#FFB6B6"/>
<path d="M123.722 366.304L134.923 365.635V370.433L145.572 377.787C146.098 378.15 146.494 378.671 146.702 379.276C146.911 379.88 146.921 380.535 146.731 381.145C146.54 381.755 146.16 382.288 145.645 382.667C145.13 383.046 144.508 383.25 143.868 383.25H130.533L128.235 378.504L127.337 383.25H122.309L123.722 366.304Z" fill="#2F2E41"/>
<path d="M83.6022 347.789H83.6785L85.0268 303.828C84.1542 302.145 83.7114 300.273 83.7377 298.378C83.7641 296.483 84.2587 294.623 85.1777 292.965L85.3707 292.616L84.8702 290.296C84.2273 287.316 84.5223 284.21 85.7148 281.404L86.9727 240.396C82.4787 211.278 103.896 192.288 103.896 192.288L99.9819 175.827L138.729 172.017L135.978 192.288L142.866 215.948C147.42 260.301 146.594 303.521 139.368 345.395L139.565 345.495C140.274 345.739 140.578 346.722 140.244 347.689C139.911 348.656 139.065 349.242 138.356 348.997L121.412 348.408C120.703 348.163 120.399 347.18 120.733 346.213C121.066 345.246 121.912 344.661 122.621 344.905L123.773 345.488L121.317 303.067L121.589 295.319L121.027 286.528L118.43 246.989L108.6 295.611L98.5586 348.279C98.8355 348.529 99.0299 348.858 99.1161 349.222C99.2022 349.585 99.1761 349.966 99.0412 350.314C98.9063 350.663 98.6689 350.962 98.3603 351.173C98.0518 351.383 97.6866 351.495 97.313 351.494H83.6023C83.1115 351.493 82.6412 351.298 82.2945 350.95C81.9479 350.603 81.7532 350.132 81.7532 349.642C81.7532 349.151 81.9479 348.681 82.2945 348.333C82.6412 347.986 83.1115 347.79 83.6023 347.789L83.6022 347.789Z" fill="#2F2E41"/>
<path d="M131.182 134.418L123.562 129.847L108.322 128.323L94.8523 135.181L94.9873 156.13L103.533 177.858L136.823 184.718L140.707 165.623C140.707 165.623 150.614 152.321 139.945 144.703L131.182 134.418Z" fill="#2D7D2D"/>
<path d="M98.5644 224.87C97.8403 224.424 97.2228 223.825 96.7554 223.115C96.288 222.405 95.9821 221.601 95.8591 220.759C95.7361 219.918 95.7991 219.06 96.0437 218.246C96.2882 217.431 96.7084 216.681 97.2746 216.046L92.3607 163.306L104.973 164.28L105.837 215.816C106.84 216.837 107.433 218.191 107.505 219.621C107.576 221.05 107.12 222.457 106.223 223.573C105.327 224.689 104.052 225.437 102.64 225.676C101.229 225.915 99.7786 225.629 98.5644 224.87V224.87Z" fill="#FFB6B6"/>
<path d="M95.3195 135.391C95.3195 135.391 92.2789 134.946 92.6311 141.446C92.913 146.649 91.573 178.722 93.8629 185.585C92.1272 186.654 92.0348 212.758 92.6681 214.794L107.378 211.659C109.092 208.714 107.964 181.726 106.718 181.236L106.792 171.824L110.043 140.801L97.523 135.673L95.3195 135.391Z" fill="#2D7D2D"/>
<path d="M170.501 229.75C170.107 229.269 169.825 228.707 169.676 228.104C169.527 227.501 169.514 226.872 169.638 226.263C171.093 219.024 171.093 211.568 169.638 204.329C169.514 203.72 169.527 203.091 169.676 202.488C169.825 201.885 170.107 201.322 170.501 200.842C170.879 200.38 171.353 200.006 171.891 199.747C172.429 199.488 173.017 199.349 173.613 199.341C180.022 196.788 186.159 196.788 191.858 199.342C192.842 199.359 193.788 199.726 194.525 200.378C195.263 201.03 195.744 201.923 195.882 202.897C197 211.125 197 219.467 195.882 227.695C195.742 228.681 195.251 229.583 194.499 230.237C193.747 230.89 192.784 231.25 191.788 231.251H173.676C173.068 231.252 172.468 231.118 171.919 230.858C171.37 230.599 170.886 230.22 170.501 229.75V229.75Z" fill="#2D7D2D"/>
<path d="M175.573 208.796H190.818C191.07 208.795 191.311 208.694 191.489 208.516C191.668 208.337 191.768 208.095 191.768 207.843C191.768 207.591 191.668 207.349 191.489 207.17C191.311 206.992 191.07 206.891 190.818 206.89H175.573C175.32 206.89 175.078 206.991 174.899 207.169C174.72 207.348 174.62 207.59 174.62 207.843C174.62 208.096 174.72 208.338 174.899 208.517C175.078 208.695 175.32 208.796 175.573 208.796Z" fill="white"/>
<path d="M175.573 216.416H190.817C191.07 216.416 191.311 216.315 191.489 216.136C191.668 215.958 191.768 215.716 191.768 215.464C191.768 215.212 191.668 214.97 191.489 214.791C191.311 214.613 191.07 214.512 190.817 214.511H175.573C175.32 214.512 175.079 214.613 174.901 214.791C174.723 214.97 174.623 215.212 174.623 215.464C174.623 215.716 174.723 215.958 174.901 216.136C175.079 216.315 175.32 216.416 175.573 216.416V216.416Z" fill="white"/>
<path d="M175.573 224.037H190.817C191.07 224.037 191.313 223.937 191.491 223.758C191.67 223.579 191.77 223.337 191.77 223.084C191.77 222.832 191.67 222.589 191.491 222.411C191.313 222.232 191.07 222.132 190.817 222.132H175.573C175.32 222.132 175.078 222.232 174.899 222.411C174.72 222.589 174.62 222.832 174.62 223.084C174.62 223.337 174.72 223.579 174.899 223.758C175.078 223.937 175.32 224.037 175.573 224.037V224.037Z" fill="white"/>
<path d="M218.566 382.974C218.566 383.095 218.543 383.214 218.497 383.326C218.451 383.438 218.383 383.539 218.297 383.625C218.212 383.71 218.11 383.778 217.998 383.824C217.887 383.87 217.767 383.894 217.646 383.894H0.920133C0.676099 383.894 0.442057 383.797 0.269499 383.624C0.0969408 383.452 0 383.218 0 382.974C0 382.73 0.0969408 382.496 0.269499 382.323C0.442057 382.151 0.676099 382.054 0.920133 382.054H217.646C217.767 382.053 217.887 382.077 217.998 382.123C218.11 382.169 218.212 382.237 218.297 382.322C218.383 382.408 218.451 382.509 218.497 382.621C218.543 382.733 218.566 382.853 218.566 382.974V382.974Z" fill="#CCCCCC"/>
<path d="M130.226 120.535V106.341C130.229 103.842 129.739 101.367 128.786 99.0576C127.832 96.748 126.432 94.649 124.666 92.8804C122.901 91.1118 120.804 89.7083 118.496 88.7503C116.187 87.7922 113.713 87.2982 111.214 87.2966C108.714 87.295 106.239 87.7858 103.93 88.7409C101.62 89.696 99.5215 91.0968 97.7537 92.8631C95.9858 94.6294 94.5834 96.7267 93.6266 99.0351C92.6697 101.343 92.1772 103.818 92.1772 106.317V106.341C88.8242 113.327 90.9219 116.648 92.1772 120.535C92.1783 121.212 92.4478 121.861 92.9266 122.34C93.4054 122.818 94.0545 123.088 94.7316 123.089H127.67C128.347 123.088 128.997 122.819 129.476 122.34C129.955 121.861 130.224 121.212 130.226 120.535V120.535Z" fill="#2F2E41"/>
<path d="M117.439 122.167C125.304 122.167 131.679 115.792 131.679 107.929C131.679 100.066 125.304 93.6921 117.439 93.6921C109.574 93.6921 103.199 100.066 103.199 107.929C103.199 115.792 109.574 122.167 117.439 122.167Z" fill="#FFB7B7"/>
<path d="M102.536 111.662C102.665 111.641 102.794 111.614 102.923 111.594C105.145 111.2 107.366 110.813 109.58 110.412L109.784 105.393L112.467 109.889C118.588 111.92 124.314 110.772 129.701 108.239C131.478 107.396 133.202 106.445 134.863 105.393C134.411 102.618 133.343 99.978 131.739 97.6679C130.135 95.3577 128.034 93.4353 125.591 92.0414C125.387 91.9259 125.19 91.8241 124.986 91.7221C124.986 91.7221 124.985 91.722 124.984 91.7216C124.983 91.7213 124.982 91.7208 124.982 91.7202C124.981 91.7195 124.981 91.7188 124.98 91.7179C124.98 91.7171 124.98 91.7162 124.98 91.7153C124.633 91.5523 124.28 91.3961 123.927 91.2535C121.161 90.1731 118.146 89.8994 115.231 90.4645C112.316 91.0295 109.622 92.41 107.461 94.4455C103.113 98.5951 101.157 105.448 102.536 111.662Z" fill="#2F2E41"/>
</g>
<defs>
<clipPath id="clip0_13_1457">
<rect width="653" height="421" fill="white"/>
</clipPath>
</defs>
</svg>
